<mxfile host="app.diagrams.net" modified="2024-03-13T21:45:47.654Z" agent="Mozilla/5.0 (X11; Linux x86_64) AppleWebKit/537.36 (KHTML, like Gecko) Chrome/122.0.0.0 Safari/537.36" etag="Ev9MQsJeUHvWmyCEvY2u" version="24.0.0" type="github">
  <diagram name="Page-1" id="D9YqjLGPUb1XMUjvmMEB">
    <mxGraphModel dx="964" dy="513" grid="1" gridSize="10" guides="1" tooltips="1" connect="1" arrows="1" fold="1" page="1" pageScale="1" pageWidth="850" pageHeight="1100" math="0" shadow="0">
      <root>
        <mxCell id="0" />
        <mxCell id="1" parent="0" />
        <mxCell id="EaHKh7OdML5e5dnO4cVS-1" value="AWS Cloud" style="sketch=0;outlineConnect=0;gradientColor=none;html=1;whiteSpace=wrap;fontSize=12;fontStyle=0;shape=mxgraph.aws4.group;grIcon=mxgraph.aws4.group_aws_cloud;strokeColor=#AAB7B8;fillColor=none;verticalAlign=top;align=left;spacingLeft=30;fontColor=#AAB7B8;dashed=0;" vertex="1" parent="1">
          <mxGeometry x="80" y="40" width="680" height="520" as="geometry" />
        </mxCell>
        <mxCell id="EaHKh7OdML5e5dnO4cVS-2" value="VPC" style="sketch=0;outlineConnect=0;gradientColor=none;html=1;whiteSpace=wrap;fontSize=12;fontStyle=0;shape=mxgraph.aws4.group;grIcon=mxgraph.aws4.group_vpc;strokeColor=#879196;fillColor=none;verticalAlign=top;align=left;spacingLeft=30;fontColor=#879196;dashed=0;" vertex="1" parent="1">
          <mxGeometry x="120" y="80" width="600" height="440" as="geometry" />
        </mxCell>
        <mxCell id="EaHKh7OdML5e5dnO4cVS-5" value="Public subnet" style="points=[[0,0],[0.25,0],[0.5,0],[0.75,0],[1,0],[1,0.25],[1,0.5],[1,0.75],[1,1],[0.75,1],[0.5,1],[0.25,1],[0,1],[0,0.75],[0,0.5],[0,0.25]];outlineConnect=0;gradientColor=none;html=1;whiteSpace=wrap;fontSize=12;fontStyle=0;container=1;pointerEvents=0;collapsible=0;recursiveResize=0;shape=mxgraph.aws4.group;grIcon=mxgraph.aws4.group_security_group;grStroke=0;strokeColor=#7AA116;fillColor=#F2F6E8;verticalAlign=top;align=left;spacingLeft=30;fontColor=#248814;dashed=0;" vertex="1" parent="1">
          <mxGeometry x="425" y="120" width="215" height="160" as="geometry" />
        </mxCell>
        <mxCell id="EaHKh7OdML5e5dnO4cVS-7" value="" style="outlineConnect=0;dashed=0;verticalLabelPosition=bottom;verticalAlign=top;align=center;html=1;shape=mxgraph.aws3.ec2;fillColor=#F58534;gradientColor=none;" vertex="1" parent="EaHKh7OdML5e5dnO4cVS-5">
          <mxGeometry x="70" y="40" width="76.5" height="93" as="geometry" />
        </mxCell>
        <mxCell id="EaHKh7OdML5e5dnO4cVS-6" value="Public subnet" style="points=[[0,0],[0.25,0],[0.5,0],[0.75,0],[1,0],[1,0.25],[1,0.5],[1,0.75],[1,1],[0.75,1],[0.5,1],[0.25,1],[0,1],[0,0.75],[0,0.5],[0,0.25]];outlineConnect=0;gradientColor=none;html=1;whiteSpace=wrap;fontSize=12;fontStyle=0;container=1;pointerEvents=0;collapsible=0;recursiveResize=0;shape=mxgraph.aws4.group;grIcon=mxgraph.aws4.group_security_group;grStroke=0;strokeColor=#7AA116;fillColor=#F2F6E8;verticalAlign=top;align=left;spacingLeft=30;fontColor=#248814;dashed=0;" vertex="1" parent="1">
          <mxGeometry x="425" y="350" width="215" height="150" as="geometry" />
        </mxCell>
        <mxCell id="EaHKh7OdML5e5dnO4cVS-8" value="" style="outlineConnect=0;dashed=0;verticalLabelPosition=bottom;verticalAlign=top;align=center;html=1;shape=mxgraph.aws3.ec2;fillColor=#F58534;gradientColor=none;" vertex="1" parent="EaHKh7OdML5e5dnO4cVS-6">
          <mxGeometry x="70" y="29" width="76.5" height="93" as="geometry" />
        </mxCell>
        <mxCell id="EaHKh7OdML5e5dnO4cVS-9" value="Amazon S3" style="sketch=0;outlineConnect=0;fontColor=#232F3E;gradientColor=none;strokeColor=#ffffff;fillColor=#232F3E;dashed=0;verticalLabelPosition=middle;verticalAlign=bottom;align=center;html=1;whiteSpace=wrap;fontSize=10;fontStyle=1;spacing=3;shape=mxgraph.aws4.productIcon;prIcon=mxgraph.aws4.s3;" vertex="1" parent="1">
          <mxGeometry x="770" y="252" width="70" height="100" as="geometry" />
        </mxCell>
        <mxCell id="EaHKh7OdML5e5dnO4cVS-10" value="" style="outlineConnect=0;dashed=0;verticalLabelPosition=bottom;verticalAlign=top;align=center;html=1;shape=mxgraph.aws3.application_load_balancer;fillColor=#F58536;gradientColor=none;" vertex="1" parent="1">
          <mxGeometry x="220" y="280" width="69" height="72" as="geometry" />
        </mxCell>
        <mxCell id="EaHKh7OdML5e5dnO4cVS-11" value="" style="sketch=0;outlineConnect=0;fontColor=#232F3E;gradientColor=none;fillColor=#8C4FFF;strokeColor=none;dashed=0;verticalLabelPosition=bottom;verticalAlign=top;align=center;html=1;fontSize=12;fontStyle=0;aspect=fixed;pointerEvents=1;shape=mxgraph.aws4.internet_gateway;" vertex="1" parent="1">
          <mxGeometry x="80" y="280" width="78" height="78" as="geometry" />
        </mxCell>
        <mxCell id="EaHKh7OdML5e5dnO4cVS-15" value="Security Group" style="fontStyle=0;verticalAlign=top;align=center;spacingTop=-2;fillColor=none;rounded=0;whiteSpace=wrap;html=1;strokeColor=#FF0000;strokeWidth=2;dashed=1;container=1;collapsible=0;expand=0;recursiveResize=0;" vertex="1" parent="1">
          <mxGeometry x="420" y="310" width="230" height="200" as="geometry" />
        </mxCell>
        <mxCell id="EaHKh7OdML5e5dnO4cVS-16" value="Security Group" style="fontStyle=0;verticalAlign=top;align=center;spacingTop=-2;fillColor=none;rounded=0;whiteSpace=wrap;html=1;strokeColor=#FF0000;strokeWidth=2;dashed=1;container=1;collapsible=0;expand=0;recursiveResize=0;" vertex="1" parent="1">
          <mxGeometry x="417.5" y="100" width="232.5" height="200" as="geometry" />
        </mxCell>
        <mxCell id="EaHKh7OdML5e5dnO4cVS-20" style="edgeStyle=orthogonalEdgeStyle;rounded=0;orthogonalLoop=1;jettySize=auto;html=1;exitX=1;exitY=0.5;exitDx=0;exitDy=0;exitPerimeter=0;entryX=0.087;entryY=0.5;entryDx=0;entryDy=0;entryPerimeter=0;" edge="1" parent="1" source="EaHKh7OdML5e5dnO4cVS-10" target="EaHKh7OdML5e5dnO4cVS-15">
          <mxGeometry relative="1" as="geometry" />
        </mxCell>
        <mxCell id="EaHKh7OdML5e5dnO4cVS-21" style="edgeStyle=orthogonalEdgeStyle;rounded=0;orthogonalLoop=1;jettySize=auto;html=1;exitX=1;exitY=0.5;exitDx=0;exitDy=0;exitPerimeter=0;entryX=0.097;entryY=0.5;entryDx=0;entryDy=0;entryPerimeter=0;" edge="1" parent="1" source="EaHKh7OdML5e5dnO4cVS-10" target="EaHKh7OdML5e5dnO4cVS-16">
          <mxGeometry relative="1" as="geometry" />
        </mxCell>
        <mxCell id="EaHKh7OdML5e5dnO4cVS-22" style="edgeStyle=orthogonalEdgeStyle;rounded=0;orthogonalLoop=1;jettySize=auto;html=1;entryX=0.656;entryY=0.5;entryDx=0;entryDy=0;entryPerimeter=0;" edge="1" parent="1" source="EaHKh7OdML5e5dnO4cVS-9" target="EaHKh7OdML5e5dnO4cVS-16">
          <mxGeometry relative="1" as="geometry" />
        </mxCell>
        <mxCell id="EaHKh7OdML5e5dnO4cVS-23" style="edgeStyle=orthogonalEdgeStyle;rounded=0;orthogonalLoop=1;jettySize=auto;html=1;entryX=0.652;entryY=0.55;entryDx=0;entryDy=0;entryPerimeter=0;" edge="1" parent="1" source="EaHKh7OdML5e5dnO4cVS-9" target="EaHKh7OdML5e5dnO4cVS-15">
          <mxGeometry relative="1" as="geometry" />
        </mxCell>
      </root>
    </mxGraphModel>
  </diagram>
</mxfile>
